<svg xmlns="http://www.w3.org/2000/svg" xmlns:xlink="http://www.w3.org/1999/xlink" viewBox="0 0 256.77 121.5" style="
    height: 100px;
    /* width: 100px; */
"><defs><style>.cls-1,.cls-2{fill:#014d49;}.cls-1,.cls-10,.cls-4,.cls-5,.cls-7,.cls-8,.cls-9{fill-rule:evenodd;}.cls-3{fill:#fff;}.cls-4{fill:#f9f9fa;}.cls-5{fill:url(#linear-gradient);}.cls-6{fill:#231f20;}.cls-7{fill:#e8ae71;}.cls-8{fill:url(#linear-gradient-2);}.cls-9{fill:url(#linear-gradient-3);}.cls-10{fill:#fcfce9;}</style><linearGradient id="linear-gradient" x1="84.55" y1="55.11" x2="145.68" y2="55.11" gradientUnits="userSpaceOnUse"><stop offset="0" stop-color="#968572"></stop><stop offset="0.99" stop-color="#dec4ac"></stop></linearGradient><linearGradient id="linear-gradient-2" x1="126.16" y1="64.78" x2="169.23" y2="64.78" xlink:href="#linear-gradient"></linearGradient><linearGradient id="linear-gradient-3" x1="131.65" y1="70.89" x2="177.05" y2="70.89" xlink:href="#linear-gradient"></linearGradient></defs><title>piekarnia-goszczynski-logo-svg</title><g id="Layer_2" data-name="Layer 2" style="
    height: 100px;
"><g id="Layer_1-2" data-name="Layer 1"><path class="cls-1" d="M240.82,65H218.33c-8.79-.59-17.34-2.13-19.51-5.8a5.53,5.53,0,0,0-.49-.71c-8-16.22-36.48-28.27-70.2-28.27-33.92,0-62.51,12.19-70.33,28.55-.1.14-.2.27-.3.43C55.34,62.82,46.78,64.36,38,65H16A9,9,0,0,0,7,73.9v31.65a9,9,0,0,0,9,9H240.82a9,9,0,0,0,9-9V73.9A9,9,0,0,0,240.82,65Z"></path><path class="cls-2" d="M240.82,121.5H16A16,16,0,0,1,0,105.55V73.9A16,16,0,0,1,16,58H37.76c10.26-.71,13.33-2.33,14-2.74l0-.06c9.62-19.15,40.18-32,76.38-32,35.86,0,66.33,12.66,76.17,31.57.11.16.22.32.32.48.64.41,3.72,2,13.95,2.73h22.25a16,16,0,0,1,15.95,16v31.65A16,16,0,0,1,240.82,121.5ZM16,72a2,2,0,0,0-1.95,2v31.65a2,2,0,0,0,1.95,2H240.82a2,2,0,0,0,2-2V73.9a2,2,0,0,0-2-2h-23c-14.07-1-21.8-3.78-25-9.17l-.43-.53-.35-.7c-6-12.11-29.86-24.37-63.92-24.37s-58.32,12.66-64,24.57l-.27.56-.42.59c-3.26,5.31-11,8.11-25,9H16Zm47.58-9.23ZM51.48,55.58h0Zm153.36,0h0Z"></path><path class="cls-3" d="M240.82,115H16a9.46,9.46,0,0,1-9.45-9.45V73.9A9.46,9.46,0,0,1,16,64.45H38c10.75-.72,17.35-2.64,19.07-5.55l.26-.39c8.13-17,37.24-28.84,70.8-28.84,33.25,0,62.28,11.71,70.62,28.5a5.52,5.52,0,0,1,.5.73c1.72,2.91,8.33,4.83,19.11,5.55h22.46a9.46,9.46,0,0,1,9.45,9.45v31.65A9.46,9.46,0,0,1,240.82,115ZM128.13,30.67c-33.19,0-61.92,11.62-69.88,28.27l-.11.16c-.07.1-.14.19-.21.31-1.92,3.25-8.62,5.28-19.9,6H16A8.46,8.46,0,0,0,7.5,73.9v31.65A8.46,8.46,0,0,0,16,114H240.82a8.46,8.46,0,0,0,8.45-8.45V73.9a8.46,8.46,0,0,0-8.45-8.45H218.33c-11.32-.76-18-2.79-19.94-6a4.76,4.76,0,0,0-.45-.66l-.06-.09C189.74,42.18,161.05,30.67,128.13,30.67Z"></path><path class="cls-4" d="M35.51,99.06l1.74-6.58a6.24,6.24,0,0,0,.27-1.64A.88.88,0,0,0,37,90a3.53,3.53,0,0,0-1.58-.31c-.78,0-1.17-.26-1.17-.64s.36-.73,1.09-.73c.28,0,.76,0,1.47.08,1.07.07,2,.1,2.8.1.54,0,2-.09,4.37-.27l.89,0c.63,0,1,.19,1,.58,0,.56-.48.83-1.43.83a2.43,2.43,0,0,0-1.59.44A3.28,3.28,0,0,0,42,91.67l-2.09,8a5.63,5.63,0,0,1-.46,1.36,1.5,1.5,0,0,1-.79.41,27.29,27.29,0,0,1-3.16.58,26.59,26.59,0,0,1-3.31.27,15.63,15.63,0,0,1-7.51-1.68,10,10,0,0,1-4.08-4.24,12.15,12.15,0,0,1-1.4-5.79,15.2,15.2,0,0,1,2.24-7.85,18.17,18.17,0,0,1,6.37-6.17A27.77,27.77,0,0,1,36.75,73a25.24,25.24,0,0,1,5.14-.56c3.06,0,4.6.37,4.6,1.1a3.09,3.09,0,0,1-.23.89c-.52,1.45-.9,2.62-1.15,3.51a7.18,7.18,0,0,1-.56,1.59.74.74,0,0,1-.64.4c-.41,0-.61-.29-.61-.87a19.46,19.46,0,0,1,.2-2.4,9.65,9.65,0,0,0,.13-1.27c0-1.08-.78-1.62-2.32-1.62a16.3,16.3,0,0,0-8.78,2.72,17.53,17.53,0,0,0-6.86,7.91,15.17,15.17,0,0,0-1.41,6.23,12.48,12.48,0,0,0,1.63,6.27A8.67,8.67,0,0,0,28.77,100a7,7,0,0,0,3.78,1.09,4.48,4.48,0,0,0,2.17-.37,1,1,0,0,0,.42-.45A8.28,8.28,0,0,0,35.51,99.06ZM59.2,80.71A6.67,6.67,0,0,1,63.08,82a8,8,0,0,1,2.64,3.15,9.59,9.59,0,0,1,.94,4.27,12.07,12.07,0,0,1-1.93,6.51A13.27,13.27,0,0,1,58.81,101a10.35,10.35,0,0,1-4.31,1.06,6.37,6.37,0,0,1-5.08-2.54,9.5,9.5,0,0,1-2.08-6.26,12.81,12.81,0,0,1,7.77-11.61A10.19,10.19,0,0,1,59.2,80.71Zm.21,1a5.57,5.57,0,0,0-4.62,2.75,19.78,19.78,0,0,0-2.65,5.67,21.38,21.38,0,0,0-.93,6.1,6.2,6.2,0,0,0,.89,3.59,2.9,2.9,0,0,0,2.52,1.27,5.07,5.07,0,0,0,4.16-2.27,19.33,19.33,0,0,0,2.89-5.51A20.17,20.17,0,0,0,63,86.68a7.38,7.38,0,0,0-.63-3.19A3.11,3.11,0,0,0,59.41,81.71Zm9.53,13.86a1.35,1.35,0,0,1,1,.47,18.55,18.55,0,0,1,1.65,2.21c1.17,1.72,2.22,2.57,3.15,2.57a2,2,0,0,0,1.62-.9,3.35,3.35,0,0,0,.7-2.13,3.69,3.69,0,0,0-.55-1.92,22.14,22.14,0,0,0-2.33-2.93,24.43,24.43,0,0,1-2.57-3.38,4.87,4.87,0,0,1-.73-2.4,5.88,5.88,0,0,1,2-4.25,7.54,7.54,0,0,1,5.49-2.2c2,0,3.34.37,4.17,1.12a1.92,1.92,0,0,1,.74,1.47,6.38,6.38,0,0,1-.37,2,1,1,0,0,1-.91.77c-.55,0-1.27-.48-2.13-1.47-1.33-1.52-2.62-2.28-3.85-2.28a1.87,1.87,0,0,0-1.37.52,1.79,1.79,0,0,0-.53,1.34,4.7,4.7,0,0,0,1,2.47,46.7,46.7,0,0,0,3.56,4.43,12,12,0,0,1,1.83,2.5A4.77,4.77,0,0,1,81,95.78,5.53,5.53,0,0,1,79,99.89a8.2,8.2,0,0,1-5.77,2.2,9,9,0,0,1-2.74-.41,4.47,4.47,0,0,1-1.91-1A3.68,3.68,0,0,1,68,96.34,1.23,1.23,0,0,1,68.94,95.57Zm31.7-11.63a15.83,15.83,0,0,1-5.86,1.54,10,10,0,0,1-3.38-.71,7.62,7.62,0,0,0-2.27-.6,1.75,1.75,0,0,0-1.44.71,2.75,2.75,0,0,0-.57,1.78,6.4,6.4,0,0,0,.08.8c0,.18,0,.32,0,.41,0,.3-.13.46-.37.46-.44,0-.65-.65-.65-2a6.36,6.36,0,0,1,1-3.6,5.63,5.63,0,0,1,1.81-1.69,4.21,4.21,0,0,1,2.18-.66,4.93,4.93,0,0,1,1.62.28,19.87,19.87,0,0,1,2.44,1.12A9,9,0,0,0,99.23,83a2.85,2.85,0,0,0,1.8-.52c.67-1.58,1.51-2.36,2.54-2.36.73,0,1.09.38,1.09,1.14a2.08,2.08,0,0,1-.94,1.84,17.77,17.77,0,0,1-1.67.83,56.21,56.21,0,0,0-5.14,5.13c-1.38,1.53-2.39,2.61-3,3.26s-1.65,1.62-3,2.89c-.48.43-1.25,1.11-2.32,2l-1.33,1.23a4.78,4.78,0,0,0,1-.11,16,16,0,0,0,1.6-.68,6.56,6.56,0,0,1,2.8-.62,3.75,3.75,0,0,1,1.11.13,11.32,11.32,0,0,1,1.56.74,6,6,0,0,0,2.26.81,2,2,0,0,0,1.51-.7,2.32,2.32,0,0,0,.64-1.64,5.11,5.11,0,0,0-.27-1.27,1.18,1.18,0,0,1-.06-.36c0-.31.13-.47.37-.47s.46.23.68.7a3.64,3.64,0,0,1,.32,1.5,5.35,5.35,0,0,1-1.53,3.57,6.41,6.41,0,0,1-2.15,1.59,6,6,0,0,1-2.53.57,6.51,6.51,0,0,1-2.17-.37,12.94,12.94,0,0,1-2.52-1.32,6.06,6.06,0,0,0-2.43-1.1,3.09,3.09,0,0,0-.89.23q-1.53,2.16-3.15,2.16a1.16,1.16,0,0,1-.83-.31,1.1,1.1,0,0,1-.32-.81,1.79,1.79,0,0,1,1-1.55,5.74,5.74,0,0,1,2.69-.69c.93-.85,1.59-1.48,2-1.91S89,95.32,90,94.1a51,51,0,0,1,3.75-4.2Q95.24,88.49,100.64,83.94Zm16.52-3.26a5.55,5.55,0,0,1,3,.73,2.58,2.58,0,0,1,1.39,2.29,1.89,1.89,0,0,1-.55,1.36,1.78,1.78,0,0,1-1.32.57c-1,0-1.85-.81-2.57-2.43a3.24,3.24,0,0,0-.66-1.07,1.16,1.16,0,0,0-.81-.3,3.13,3.13,0,0,0-1.94.83,8.73,8.73,0,0,0-1.91,2.28,18.79,18.79,0,0,0-2,4.82,19.54,19.54,0,0,0-.8,5.17,5.26,5.26,0,0,0,1,3.4,3.11,3.11,0,0,0,2.52,1.21q3.1,0,6.11-4.22c.15-.21.28-.31.39-.31.27,0,.39.14.39.41a4.62,4.62,0,0,1-1.28,2.18,17.18,17.18,0,0,1-2.67,2.66,7.71,7.71,0,0,1-4.72,1.85,6.18,6.18,0,0,1-2.47-.52,5.6,5.6,0,0,1-2.73-2.67,9.33,9.33,0,0,1-1-4.45,12.92,12.92,0,0,1,.55-3.55,15.06,15.06,0,0,1,1.51-3.55,13.49,13.49,0,0,1,5.85-5.61A11.29,11.29,0,0,1,117.16,80.68Zm20.72,3.26A15.83,15.83,0,0,1,132,85.48a9.94,9.94,0,0,1-3.38-.71,7.59,7.59,0,0,0-2.28-.6,1.75,1.75,0,0,0-1.44.71,2.81,2.81,0,0,0-.56,1.78,6,6,0,0,0,.07.8,2.61,2.61,0,0,1,0,.41c0,.3-.12.46-.37.46-.43,0-.65-.65-.65-2a6.29,6.29,0,0,1,1.06-3.6,5.53,5.53,0,0,1,1.81-1.69,4.17,4.17,0,0,1,2.17-.66,4.93,4.93,0,0,1,1.62.28,19.87,19.87,0,0,1,2.44,1.12A9.08,9.08,0,0,0,136.47,83a2.81,2.81,0,0,0,1.8-.52c.67-1.58,1.52-2.36,2.54-2.36a1,1,0,0,1,1.1,1.14,2.08,2.08,0,0,1-.95,1.84,17.77,17.77,0,0,1-1.67.83,56.36,56.36,0,0,0-5.13,5.13c-1.39,1.53-2.4,2.61-3,3.26s-1.66,1.62-3,2.89l-2.32,2c-.29.25-.73.66-1.34,1.23a4.7,4.7,0,0,0,1-.11,16.81,16.81,0,0,0,1.61-.68,6.53,6.53,0,0,1,2.8-.62,3.84,3.84,0,0,1,1.11.13,12,12,0,0,1,1.55.74,6,6,0,0,0,2.27.81,2,2,0,0,0,1.51-.7,2.32,2.32,0,0,0,.64-1.64,4.81,4.81,0,0,0-.28-1.27,1.56,1.56,0,0,1,0-.36c0-.31.12-.47.37-.47s.46.23.68.7a3.64,3.64,0,0,1,.32,1.5,5.32,5.32,0,0,1-1.54,3.57,6.37,6.37,0,0,1-2.14,1.59,6,6,0,0,1-2.53.57,6.46,6.46,0,0,1-2.17-.37,12.94,12.94,0,0,1-2.52-1.32,6.17,6.17,0,0,0-2.43-1.1,2.94,2.94,0,0,0-.89.23c-1,1.44-2.08,2.16-3.16,2.16a1.13,1.13,0,0,1-.82-.31,1.06,1.06,0,0,1-.32-.81,1.79,1.79,0,0,1,1-1.55,5.7,5.7,0,0,1,2.69-.69c.92-.85,1.59-1.48,2-1.91s1.11-1.25,2.12-2.47A49,49,0,0,1,131,89.9Q132.49,88.49,137.88,83.94Zm12.76,16.53a58.53,58.53,0,0,0,5.3-7.76,11.92,11.92,0,0,0,1.76-5.25,6.75,6.75,0,0,0-.37-2.1,7,7,0,0,1-.44-2,3.07,3.07,0,0,1,.58-1.9,1.74,1.74,0,0,1,1.42-.77c1.24,0,1.85,1,1.85,2.86,0,2.11-.92,4.74-2.76,7.91a102.29,102.29,0,0,1-8,11.61q-2.85,3.68-4.18,5.14a14.72,14.72,0,0,1-2.51,2.27,7.06,7.06,0,0,1-4,1.41,3.57,3.57,0,0,1-2.24-.66,2.14,2.14,0,0,1-.85-1.77,1.82,1.82,0,0,1,.53-1.35,1.79,1.79,0,0,1,1.34-.54,1.87,1.87,0,0,1,1.09.31,9,9,0,0,1,1.36,1.33,1.57,1.57,0,0,0,1.11.69,3.23,3.23,0,0,0,2.22-1.16,8.82,8.82,0,0,0,1.86-3,22.85,22.85,0,0,0,1.3-5.45,67.36,67.36,0,0,0,.4-8.11,34.91,34.91,0,0,0-.49-6.65c-.32-1.62-.77-2.42-1.34-2.42-.4,0-.83.3-1.3.89a25.46,25.46,0,0,0-2,3.55c-.15.29-.31.44-.5.44s-.41-.19-.41-.58a7.87,7.87,0,0,1,1.56-3.37q2.25-3.4,4.84-3.4c1.38,0,2.34,1,2.85,2.86a31.71,31.71,0,0,1,.67,7.64A87.59,87.59,0,0,1,150.64,100.47ZM169,92.27a47.3,47.3,0,0,1,5.6-8.43c2-2.1,3.95-3.16,5.92-3.16a2.67,2.67,0,0,1,2.32,1,3,3,0,0,1,.52,1.73,10.26,10.26,0,0,1-.37,2.42c-.25,1-.69,2.33-1.32,4.13-1.61,4.54-2.42,7.3-2.42,8.26,0,.52.18.77.52.77s.83-.36,1.54-1.1A12,12,0,0,0,183,95.61c.41-.69.71-1,.89-1a.38.38,0,0,1,.26.16.48.48,0,0,1,.13.34,5.32,5.32,0,0,1-1,2,16.32,16.32,0,0,1-2.08,2.57q-2.43,2.41-4.47,2.41c-1.2,0-1.8-.71-1.8-2.12a16,16,0,0,1,.74-3.76q.75-2.59,2.68-8.24a16.23,16.23,0,0,0,1-4c0-.76-.31-1.14-.94-1.14a4.75,4.75,0,0,0-2.83,1.62,22.86,22.86,0,0,0-3.46,4.36,45.62,45.62,0,0,0-5.17,11c-.27.83-.55,1.32-.84,1.46a8,8,0,0,1-2.55.22c-.59,0-.89-.21-.89-.62a7,7,0,0,1,.39-1.33q1.68-5,3-9.65a32.57,32.57,0,0,0,1.31-5.8c0-.42-.14-.62-.41-.62s-.66.3-1.28.91a15.32,15.32,0,0,0-1.71,2q-.83,1.2-1.11,1.2a.36.36,0,0,1-.28-.16.59.59,0,0,1-.12-.34c0-.51.7-1.58,2.11-3.21q2.78-3.23,5.25-3.22,1.41,0,1.41,2.13a13.07,13.07,0,0,1-.43,3C170.54,87,169.92,89.14,169,92.27Zm5-13.89-.18-.29a.77.77,0,0,1-.15-.42c0-.12.12-.3.35-.51l6.32-6.11c.29-.28.49-.42.61-.42s.34.14.52.4l.74,1.08a1.17,1.17,0,0,1,.28.64.73.73,0,0,1-.39.58l-7.1,5a1.74,1.74,0,0,1-.64.34C174.17,78.63,174.06,78.54,173.94,78.38Zm12.68,17.19a1.35,1.35,0,0,1,1,.47,17.21,17.21,0,0,1,1.66,2.21c1.17,1.72,2.22,2.57,3.15,2.57a2,2,0,0,0,1.62-.9,3.4,3.4,0,0,0,.69-2.13,3.78,3.78,0,0,0-.54-1.92,24,24,0,0,0-2.33-2.93,23.88,23.88,0,0,1-2.58-3.38,4.85,4.85,0,0,1-.72-2.4,5.88,5.88,0,0,1,2-4.25,7.51,7.51,0,0,1,5.49-2.2c1.95,0,3.34.37,4.17,1.12A2,2,0,0,1,201,83.3a6.67,6.67,0,0,1-.37,2c-.19.52-.49.77-.91.77s-1.27-.48-2.13-1.47c-1.34-1.52-2.62-2.28-3.86-2.28a1.87,1.87,0,0,0-1.37.52,1.79,1.79,0,0,0-.52,1.34,4.68,4.68,0,0,0,.94,2.47,47.25,47.25,0,0,0,3.57,4.43,12.36,12.36,0,0,1,1.83,2.5,4.76,4.76,0,0,1,.5,2.19,5.55,5.55,0,0,1-1.94,4.11,8.23,8.23,0,0,1-5.77,2.2,8.91,8.91,0,0,1-2.74-.41,4.52,4.52,0,0,1-1.92-1,3.6,3.6,0,0,1-1.09-2.56,3.55,3.55,0,0,1,.42-1.76A1.26,1.26,0,0,1,186.62,95.57Zm21.15-2.35-2.18,6.8a2.75,2.75,0,0,1-.71,1.37,6.93,6.93,0,0,1-1.92.14,4.84,4.84,0,0,1-1.3-.11.42.42,0,0,1-.3-.45,11.41,11.41,0,0,1,.47-1.85l5.74-19.33c.73-2.63,1.1-4,1.1-4.23,0-.75-.65-1.12-1.95-1.1a1.68,1.68,0,0,1-.75-.11c-
.12-.06-.18-.21-.18-.43,0-.5.38-.75,1.15-.73a11.93,11.93,0,0,0,5.82-1.1,1.36,1.36,0,0,1,.56-.19c.27,0,.41.16.41.46a4,4,0,0,1-.23,1l-5.15,16.23a29.84,29.84,0,0,1,5.12-6.41q2.9-2.47,5.28-2.48a3.72,3.72,0,0,1,3,1.44,4.28,4.28,0,0,1,1.06,2.8,5.75,5.75,0,0,1-1.18,3.31,8.85,8.85,0,0,1-3.07,2.71,13.7,13.7,0,0,1-4.45,1.41,17.54,17.54,0,0,0-1.9.34,12.74,12.74,0,0,1,1.69,2c.34.55.9,1.67,1.68,3.35a6.08,6.08,0,0,0,1.13,1.79,1.83,1.83,0,0,0,1.3.52,1.37,1.37,0,0,0,1-.47,1.53,1.53,0,0,0,.44-1.07,1,1,0,0,0-.16-.6,4.6,4.6,0,0,0-.82-.65,1.23,1.23,0,0,1-.63-1.06,1.06,1.06,0,0,1,.3-.76,1,1,0,0,1,.76-.31,1.67,1.67,0,0,1,1.36.68,2.68,2.68,0,0,1,.54,1.7,4.1,4.1,0,0,1-1.2,2.89,5.13,5.13,0,0,1-7.23-.25A9.13,9.13,0,0,1,211.31,99c-.24-.44-.84-1.7-1.79-3.77A3.76,3.76,0,0,0,207.77,93.22Zm.47-1a15.5,15.5,0,0,0,4.93-.87,7.92,7.92,0,0,0,4.13-3.26A5.85,5.85,0,0,0,218.41,85a2.1,2.1,0,0,0-.45-1.38,1.4,1.4,0,0,0-1.14-.55,4.09,4.09,0,0,0-2.22.92,14.71,14.71,0,0,0-2.67,2.57,20.77,20.77,0,0,0-3.69,5.75Zm26.38,2.49a.56.56,0,0,1,.26.18.55.55,0,0,1,.13.3,3.54,3.54,0,0,1-.66,1.4,14,14,0,0,1-1.51,2q-3.14,3.51-5.45,3.51c-1.1,0-1.65-.69-1.65-2.08a13.13,13.13,0,0,1,.67-3.88c1.06-3.48,2.21-6.82,3.46-10.05a7.63,7.63,0,0,0,.61-2.14c0-.27-.09-.41-.28-.41q-1,0-3.83,3.44a.64.64,0,0,1-.45.3.34.34,0,0,1-.25-.17.59.59,0,0,1-.12-.35,3.19,3.19,0,0,1,.8-1.39A14.48,14.48,0,0,1,229.89,82a6.76,6.76,0,0,1,3.52-1.28c.83,0,1.24.61,1.24,1.82a6.71,6.71,0,0,1-.27,1.9q-.25.93-1.86,5.49Q230,97.15,230,98.54c0,.34.13.52.39.52a2.22,2.22,0,0,0,1.09-.68,10.46,10.46,0,0,0,1.48-1.6c.27-.34.61-.8,1-1.42C234.28,95,234.49,94.75,234.62,94.76ZM235.34,73a1.44,1.44,0,0,1,1.18.6,2.5,2.5,0,0,1,.47,1.56,3.93,3.93,0,0,1-.85,2.48,2.37,2.37,0,0,1-1.88,1.12,1.41,1.41,0,0,1-1.15-.58,2.31,2.31,0,0,1-.46-1.48,4.22,4.22,0,0,1,.82-2.57A2.32,2.32,0,0,1,235.34,73Z"></path><polygon class="cls-5" points="114.13 72.51 103.74 70.21 96.33 67.99 91.95 66.27 89.12 64.63 87.12 62.7 85.57 60.48 84.88 57.97 84.55 55.49 85.07 52.99 86.07 50.49 87.83 47.98 90.08 45.98 93.58 43.48 95.56 42.39 97.59 41.48 100.7 40.5 101.74 40.56 102.61 40.46 104.11 39.76 105.6 39.22 107.36 38.69 109.51 38.21 111.1 38.02 113.11 37.87 117.65 37.71 121.52 37.71 123.14 38.47 125.66 39.47 128.16 39.22 130.49 39.3 133.95 39.82 136.8 40.5 139.68 41.54 141.16 42.19 142.49 42.98 144.18 44.22 145.68 45.98 133.89 56.98 123.4 66.49 114.13 72.51 114.13 72.51"></polygon><path class="cls-6" d="M114.11,72.62l-10.4-2.3L96.3,68.1l-4.39-1.72-2.85-1.66-2-1.94-1.58-2.27L84.77,58l-.33-2.5v0L85,53l1-2.52,1.77-2.54,2.28-2,3.5-2.5,2-1.1,2-.91,3.16-1,1,0,.84-.09,1.48-.69,1.51-.54,1.76-.54,2.15-.48,1.61-.19,2-.15,4.53-.17h3.92l1.63.76,2.49,1,2.47-.24,2.34.07,3.47.52,2.86.69,2.9,1,1.49.65,1.34.8,1.7,1.25,1.51,1.77v.16L134,57.07l-10.49,9.51-9.28,6ZM85.67,60.43l1.55,2.21,2,1.9L92,66.17l4.37,1.72,7.39,2.21,10.34,2.29,9.23-6,10.48-9.5L145.52,46l-1.43-1.68-1.66-1.22-1.33-.79-1.46-.64-2.88-1-2.84-.68-3.45-.52-2.32-.07-2.48.24h0l-2.52-1-1.61-.75h-3.84l-4.53.17-2,.15-1.59.18-2.13.48-1.75.53-1.5.54-1.52.71-.87.09-1-.05-3.09,1-2,.9-2,1.09-3.48,2.49-2.25,2-1.74,2.5-1,2.47-.5,2.46L85,58Z"></path><polygon class="cls-7" points="100.64 40.73 100.67 40.73 99.25 41.23 98.53 41.72 97.85 42.22 97.2 42.72 96.26 43.59 95.8 44.2 95.22 45.03 94.82 45.97 94.5 46.97 94.22 48.01 94.17 48.32 93.74 48.73 93.93 47.77 94.21 46.74 94.52 45.74 94.93 44.79 95.5 43.96 95.97 43.35 96.91 42.48 97.55 41.98 98.2 41.51 100.64 40.73"></polygon><polygon class="cls-7" points="121.48 37.96 120.49 38.03 118.85 38.44 117.05 39.16 115.34 39.96 113.75 40.89 112.2 41.92 110.61 43.07 109.06 44.46 108.04 45.54 107.04 46.96 106.32 48.21 105.8 49.47 105.62 49.99 105.62 50 105.45 50.14 105.15 50.06 105.19 49.7 105.45 48.94 105.97 47.68 106.69 46.42 107.69 45.02 108.71 43.93 110.27 42.54 111.85 41.39 113.39 40.35 114.98 39.43 116.7 38.63 118.43 37.94 121.46 37.94 121.48 37.96"></polygon><polygon class="cls-4" points="128.16 71.75 123.9 72.77 119.15 73.16 116.52 73.04 114.3 72.56 113.52 72.06 112.67 71.34 111.95 70.49 111.36 69.4 111.01 68.07 110.8 66.81 110.66 64.5 110.8 61.96 111.32 59.13 111.91 57.21 112.6 55.45 113.82 53.28 114.93 51.64 116.48 49.83 117.89 48.49 121.2 46.13 123.35 45.02 125.16 44.22 128.4 43.28 130.51 42.83 132.43 42.5 135.35 42.07 138.41 41.98 140.92 42.48 142.92 43.24 144.94 44.48 146.42 45.98 147.8 47.7 149.19 50.14 150.17 53.05 150.56 55.58 150.65 57.71 150.52 59.28 150.08 60.7 143.16 67.99 128.16 71.75 128.16 71.75"></polygon><path class="cls-6" d="M119.16,73.27l-2.65-.11-2.27-.5-.78-.5-.86-.73-.74-.87-.6-1.11-.36-1.35-.21-1.27-.15-2.33.15-2.55.52-2.84.59-1.94.69-1.76,1.23-2.18,1.11-1.66,1.57-1.82,1.41-1.34L121.13,46l2.16-1.12,1.82-.79,3.26-.95,2.11-.45,1.93-.33,2.93-.43,3.06-.09,2.54.5,2,.76,2,1.25,1.5,1.52,1.39,1.73,1.4,2.45,1,2.93.39,2.55.1,2.14-.13,1.59-.48,1.49-6.94,7.32h0l-15,3.76-4.25,1Zm-4.82-.81,2.2.47,2.61.11,4.74-.39,4.24-1,15-3.75L150,60.64l.44-1.39.12-1.55-.09-2.12-.39-2.52-1-2.88-1.37-2.43-1.38-1.7-1.47-1.49-2-1.22-2-.75-2.5-.5-3,.1-2.91.42-1.92.33-2.11.45-3.23.94-1.8.79-2.14,1.11L118,48.59l-1.4,1.32L115,51.71l-1.11,1.64-1.21,2.16L112,57.25l-.59,1.91L110.92,62l-.15,2.52.15,2.3.2,1.25.35,1.32.58,1.07.71.83.84.71Z"></path><polygon class="cls-8" points="127.81 75.1 127.23 74.56 126.53 73.51 126.16 72.27 126.16 71.49 126.45 70.55 126.83 69.92 127.29 69.25 127.99 68.45 129.91 66.73 132.25 65.03 134.65 63.5 139.68 60.74 145.68 58.19 150.43 56.49 154.78 55.43 158.85 54.69 162.72 54.49 164.23 54.47 165.73 54.49 166.4 54.56 167.08 54.77 167.58 55.01 168.03 55.43 168.43 55.99 168.73 56.49 169.06 57.39 169.23 58.35 169.21 59.45 168.9 60.41 168.49 60.98 147.93 67.73 137.65 71.49 127.81 75.1 127.81 75.1"></polygon><path class="cls-6" d="M127.84,75.2l-.11,0-.58-.54-.73-1.1L126,72.27v-.81l.3-.95.38-.65.46-.67.72-.81,1.93-1.73,2.34-1.71,2.41-1.54,5-2.76,6-2.56,4.76-1.7,4.36-1.06,4.08-.74,3.88-.21,1.52,0,1.5,0,.68.08.71.21.54.26.44.43.42.57.31.51.34.92.17,1,0,1.15-.33,1-.41.58-.06,0L148,67.84,137.69,71.6Zm-1.21-1.74.7,1,.5.47,9.78-3.59,10.29-3.75,20.52-6.75.37-.52.31-.93V58.35l-.16-.94-.33-.88-.29-.49-.4-.54-.41-.4-.49-.23-.66-.2-.65-.07-1.49,0-1.51,0-3.86.2-4.06.74-4.34,1.06-4.75,1.69-6,2.56-5,2.75-2.4,1.53L130,66.83l-1.91,1.71-.7.79-.45.65-.37.62-.28.91v.74Z"></path><polygon class="cls-4" points="128.45 75.25 128.01 75.21 127.81 75.1 127.69 74.89 127.79 74.36 128.06 73.77 128.93 72.71 130.9 71.01 134.5 68.49 138.66 66.16 142.07 64.37 145.68 62.74 151.21 60.74 156.94 58.98 162.22 58 163.73 57.82 165.21 57.76 166.23 57.78 167.21 57.93 168.08 58.13 168.62 58.43 168.97 58.98 169.06 59.45 168.91 60.24 168.62 60.98 167.97 62.02 166.91 63.26 165.27 64.4 163.46 65.33 146.44 71.25 130.1 75.06 128.45 75.25 128.45 75.25"></polygon><path class="cls-6" d="M128.45,75.36l-.5,0-.23-.13-.14-.27.1-.6.3-.62.87-1,2-1.72,3.62-2.52,4.17-2.34L142,64.27l3.61-1.64,5.54-2,5.74-1.76,5.29-1,1.52-.19,1.49-.05,1,0,1,.15.91.21.57.34.37.59.1.48-.15.82-.31.76-.65,1.06L167,63.35l-1.65,1.15-1.82.93-17,5.93-16.34,3.81ZM128,75.1l.41,0,1.64-.18,16.32-3.81,17-5.92,1.8-.92,1.62-1.13,1-1.23.64-1,.29-.72.14-.75-.09-.42-.32-.52-.5-.27-.85-.2-1-.15h-1l-1.47,0-1.51.19-5.27,1-5.72,1.75-5.52,2-3.6,1.62-3.4,1.79-4.16,2.33L131,71.1l-2,1.7-.85,1-.26.56-.09.48.08.14Z"></path><polygon class="cls-9" points="132.39 71.75 131.91 72.27 131.65 73.01 131.65 74.01 131.91 75 132.39 75.76 133.1 76.52 134.24 77.11 135.39 77.52 138.29 77.98 141.16 78.26 144.12 78.5 147.18 78.52 153.43 78.02 156.56 77.67 159.46 77.26 163.68 76.3 167.32 75.04 169.49 74.27 172.48 73.01 175.24 71.49 175.78 71.1 176.24 70.47 176.72 69.45 176.94 68.49 177.05 67.72 177 67.05 176.93 66.09 176.55 65 176.02 64.26 175.54 63.92 174.98 63.65 174.28 63.41 173.63 63.31 172.89 63.26 166.73 66.49 138.41 72.27 132.39 71.75 132.39 71.75"></polygon><path class="cls-6" d="M147.18,78.63h-3.06l-3-.25-2.87-.27-2.91-.47-1.16-.41L133,76.6l-.7-.76L131.8,75l-.26-1V73l.28-.78.48-.52.09,0,6,.51,28.29-5.76,6.15-3.23.06,0,.74.06.66.09.72.25.57.28.52.37.55.77.38,1.12.13,1.63-.11.8-.23,1-.49,1-.5.67-.53.39-2.77,1.53-3,1.26-2.17.78-3.65,1.26-4.22,1-2.92.41-3.13.35Zm-14-2.2,1.13.58,1.13.4,2.88.46,2.86.28,3,.24,3.05,0,6.24-.5,3.12-.35,2.9-.41,4.21-1,3.64-1.26,2.16-.77,3-1.26,2.75-1.51.51-.37.45-.62.47-1,.21-.94.11-.77-.13-1.59-.36-1.06-.51-.71-.47-.32-.54-.27-.69-.24-.63-.09-.69-.05-6.17,3.24L138.4,72.38l-6-.51-.43.46-.24.7v1l.25,1,.47.74Z"></path><polygon class="cls-4" points="132.47 71.78 132.32 72.19 132.41 72.64 132.97 73.04 133.78 73.36 136.02 73.77 140.13 74.12 143.68 74.32 147.18 74.5 153.69 74.01 157.43 73.45 161.2 72.56 165.88 71.25 169.1 70.08 170.99 69.25 173.21 67.97 174.19 67.25 175.04 66.53 175.48 65.74 175.61 65.18 175.61 64.72 175.44 64.2 174.89 63.74 174.28 63.46 173.37 63.16 171.84 62.91 170.06 62.72 167.93 62.63 166.73 62.74 161.2 63.68 152.41 65.53 142.03 67.96 138.39 69.1 135.48 70.19 133.37 71.16 132.47 71.78 132.47 71.78"></polygon><path class="cls-6" d="M147.18,74.62l-3.51-.19-3.55-.2L136,73.88l-2.25-.41-.86-.33-.59-.44-.11-.52.17-.47.94-.65,2.13-1L138.35,69,142,67.85l10.38-2.43,8.8-1.85,5.53-.94,1.21-.12,2.15.1,1.78.18,1.54.26.92.3.65.3.58.48.19.59v.46l-.15.61-.47.83-.85.72-1,.73L171,69.35l-1.9.84-3.22,1.17-4.69,1.31-3.78.89-3.75.56ZM133,72.94l.8.31,2.22.4,4.1.35,3.55.21,3.49.18,6.5-.5,3.73-.55,3.76-.89,4.68-1.31L169.06,70l1.88-.83,2.21-1.27,1-.72.83-.7.42-.77.13-.54v-.41l-.15-.47-.52-.44-.6-.27-.89-.29L171.82,63l-1.77-.19-2.12-.09-1.19.11-5.52.94-8.79,1.85-10.37,2.43-3.64,1.14-2.9,1.09-2.1,1-.86.6-.12.34.07.37Z"></path><polygon class="cls-1" points="102.72 40.46 101.59 41.31 100.48 42.22 99.22 43.31 98.24 44.4 97.33 45.46 94.84 47.99 94.1 48.73 94.28 47.77 94.56 46.73 94.87 45.74 95.28 44.79 95.85 43.96 96.32 43.35 97.26 42.48 97.91 41.98 98.59 41.48 99.31 41 100.74 40.5 101.98 40.35 102.72 40.46 102.72 40.46"></polygon><polygon class="cls-1" points="120.55 37.8 118.91 38.21 117.11 38.93 115.39 39.72 113.8 40.65 112.27 41.68 110.67 42.83 109.12 44.22 108.1 45.31 107.1 46.72 106.38 47.98 105.86 49.23 105.6 49.99 105.57 50.36 105.86 50.44 106.1 50.23 109.88 47.48 114.13 44.74
 117.63 42.48 119.92 41.39 122.37 40.41 124.11 39.95 125.84 39.5 127.16 39.3 126.03 38.73 124.6 38.19 123.14 37.87 121.7 37.71 120.55 37.8 120.55 37.8"></polygon><polygon class="cls-10" points="100.72 40.5 99.3 41 98.58 41.48 97.9 41.98 97.25 42.48 96.31 43.35 95.85 43.96 95.27 44.79 94.87 45.74 94.55 46.74 94.28 47.77 94.22 48.09 93.79 48.5 93.98 47.53 94.26 46.5 94.57 45.5 94.98 44.55 95.55 43.73 96.02 43.12 96.96 42.24 97.6 41.74 98.25 41.27 100.69 40.5 100.72 40.5"></polygon><polygon class="cls-10" points="121.6 37.75 120.61 37.83 118.97 38.23 117.18 38.95 115.46 39.75 113.87 40.68 112.33 41.71 110.73 42.86 109.19 44.25 108.16 45.33 107.16 46.75 106.44 48 105.93 49.26 105.74 49.79 105.74 49.8 105.57 49.93 105.27 49.85 105.32 49.49 105.57 48.73 106.09 47.48 106.81 46.21 107.81 44.81 108.83 43.72 110.39 42.33 111.97 41.18 113.51 40.15 115.1 39.22 116.82 38.43 118.56 37.73 121.58 37.73 121.6 37.75"></polygon><path class="cls-2" d="M61.42,30.53,54.53,17.79l4-2.2a16.31,16.31,0,0,1,3.11-1.43,3.71,3.71,0,0,1,2.48.27,4.59,4.59,0,0,1,2.07,2.09,4.85,4.85,0,0,1,.65,2.2,4,4,0,0,1-.39,1.83,4.07,4.07,0,0,1-1,1.32A17.14,17.14,0,0,1,63,23.47l-1.65.89,2.6,4.8Zm-3.2-12,2,3.61,1.38-.75a6.84,6.84,0,0,0,1.89-1.28,1.9,1.9,0,0,0,.45-1.05A2,2,0,0,0,63.65,18a1.9,1.9,0,0,0-1-.94,2,2,0,0,0-1.32,0,11.92,11.92,0,0,0-1.87.9Z"></path><path class="cls-2" d="M77.31,22.92l-5-13.62,2.7-1,5,13.62Z"></path><path class="cls-2" d="M87,19.66,83.64,5.56,93.9,3.12l.57,2.39L87,7.28l.74,3.13,7-1.65.56,2.37-7,1.65.91,3.84L97,14.79l.56,2.37Z"></path><path class="cls-2" d="M104.41,16,102.87,1.6l2.85-.31.69,6.4,5.08-7,3.85-.41-4.73,6.18,6.55,8.19-3.69.4-4.61-6.35-2.06,2.66.46,4.35Z"></path><path class="cls-2" d="M136.06,14.58l-3.13,0-1.21-3.31L126,11.18l-1.21,3.28-3,0L127.47,0l3,0Zm-5.23-5.79L128.92,3.4l-2,5.35Z"></path><path class="cls-2" d="M142.16,15.07,144,.7l6,.78a10.26,10.26,0,0,1,3.24.82,3.29,3.29,0,0,1,1.46,1.59A4.26,4.26,0,0,1,155,6.23a3.92,3.92,0,0,1-1.28,2.55,4.5,4.5,0,0,1-3,1,6.44,6.44,0,0,1,1.37,1.4,15.75,15.75,0,0,1,1.32,2.54l1.36,3-3.41-.44-1.65-3.4a18.92,18.92,0,0,0-1.23-2.3,2.08,2.08,0,0,0-.78-.71,4.57,4.57,0,0,0-1.41-.35l-.58-.08-.78,6Zm3.92-7.92,2.11.27a10.92,10.92,0,0,0,2.58.16,1.53,1.53,0,0,0,.88-.5,2,2,0,0,0,.43-1,1.74,1.74,0,0,0-.23-1.22,1.76,1.76,0,0,0-1-.71c-.23-.06-.92-.17-2.07-.32l-2.22-.29Z"></path><path class="cls-2" d="M160.8,18l3.78-14,2.7.73,3.1,10.86,2.52-9.34,2.58.7-3.78,14-2.78-.75L165.84,9.54l-2.46,9.12Z"></path><path class="cls-2" d="M178.69,23.52l5.52-13.39,2.66,1.09-5.53,13.4Z"></path><path class="cls-2" d="M198.76,34.36l-2.65-1.67.71-3.45-4.81-3-2.75,2.16-2.58-1.63,12.42-9.3,2.57,1.62Zm-1.42-7.67,1.21-5.6-4.49,3.53Z"></path></g></g></svg>